<?xml version="1.0" encoding="UTF-8"?><svg id="Layer_1" xmlns="http://www.w3.org/2000/svg" viewBox="0 0 288.1 590.7"><defs><style>.cls-1{fill:#ed2024;}.cls-2{fill:#fff6d9;fill-rule:evenodd;}</style></defs><path class="cls-2" d="M252.8,68.11c71.95,61.5,26.63,195.34-70.06,197.44-4.37.27-8.76.47-13.01.89-7.68.64-15.38,2.51-21.85,5.4-30.39,13.39-47.5,46.8-82,42.86-16.33-2.06-34.14-9.87-45.77-21.67-28.74-28.61-22.01-74.96-4.31-108.87,1.64-3.59,3.24-7.19,4.5-10.87,7.96-21.72-3.56-34.18-12.29-52.76C-16.99,65.58,18.49-14.74,87.81,2.34c29.64,6.51,36.51,31.26,60.02,42.81,5.41,2.47,11.25,3.68,17.22,4.16,31.51,1.52,63.44-4.8,87.59,18.66l.16.14Z"/><path class="cls-1" d="M101.96,145.53c0-3.85-2.8-6.97-6.25-6.97h-3.12c-6.9,0-12.49,6.24-12.49,13.95v10.46c0,7.7,5.59,13.95,12.49,13.95h3.12c3.45,0,6.25-3.12,6.25-6.97v-24.41ZM192.8,177.64c6.9-.07,12.44-6.38,12.39-14.08l-.08-10.46c-.06-7.7-5.69-13.89-12.59-13.82l-3.12.03c-3.45.04-6.22,3.19-6.19,7.04l.18,24.41c.03,3.85,2.85,6.94,6.3,6.91l3.12-.03ZM142.46,99.8c-27.87,0-49.07,25.9-49.96,55.79v3.49c0,1.93,1.4,3.49,3.12,3.49h3.12c1.73,0,3.12-1.56,3.12-3.49v-3.49c0-24.99,18.21-45.33,40.59-45.33s40.59,20.33,40.59,45.33h-.02c.02.53.02,36.11.02,36.11,0,5.09-3.69,9.21-8.25,9.21h-19.85c0-5.78-4.19-10.46-9.37-10.46h-6.25c-5.17,0-9.37,4.68-9.37,10.46s4.19,10.46,9.37,10.46h35.46c9.73,0,17.62-8.81,17.62-19.67v-36.11c-.89-29.89-22.09-55.79-49.96-55.79Z"/></svg>