<?xml version="1.0" encoding="UTF-8"?><svg id="Layer_1" xmlns="http://www.w3.org/2000/svg" width="448" height="67.23" viewBox="0 0 448 67.23"><defs><style>.cls-1{fill:#3e3a15;}.cls-2{fill:#fce400;}</style></defs><path class="cls-2" d="M223.98,67.23c-72.68,0-145.37,0-218.05,0-.54,0-1.07,0-1.61,0-2.84-.04-4.31-1.53-4.31-4.41C0,45.76,0,28.72,0,11.67c0-2.47-.02-4.93,0-7.4C.03,1.64,1.57.08,4.19,0c.43-.01.86,0,1.29,0,145.63,0,291.27,0,436.9,0,.38,0,.75,0,1.13,0,2.93.03,4.48,1.55,4.49,4.45.02,5.68,0,11.36,0,17.05,0,13.56,0,27.12,0,40.69,0,3.75-1.28,5.03-5,5.03-73,0-146.01,0-219.01,0ZM34.26,20.86c-3.33.07-6.55.91-9.33,3.03-2.66,2.03-4.28,4.66-4,8.13.26,3.23,2.07,5.58,4.72,7.26.89.57,1.12,1.07.75,2.04-.38.99-.6,2.05-.86,3.09-.13.5-.5,1.12-.01,1.5.59.46,1.08-.18,1.54-.48,1.35-.86,2.72-1.72,4.01-2.67,1-.73,2.02-1.01,3.27-.99,3.53.07,6.77-.9,9.58-3.09,5.22-4.06,5.18-10.77-.09-14.76-2.79-2.12-5.99-2.99-9.58-3.07ZM251.19,41.91c2.46,0,4.93,0,7.39,0,.72,0,1.46.03,1.46-1.01,0-1-.6-1.24-1.48-1.22-1.55.04-3.11.02-4.66.02-.77,0-1.48-.23-1.49-1.1,0-.9.64-1.28,1.51-1.28.96,0,1.93.04,2.89.02.88-.02,1.86-.06,1.81-1.28-.05-1.08-.94-1.13-1.78-1.13-2.79.01-5.57,0-8.36.04-.89.01-1.66-.11-1.69-1.2-.03-1.16.81-1.2,1.67-1.2,2.62,0,5.25-.02,7.87.02,1.14.02,1.71-.41,1.69-1.58-.02-1.18-.02-2.36,0-3.54.03-1.16-.52-1.62-1.67-1.61-3.48.03-6.96,0-10.45,0-.77,0-1.59,0-1.61,1.08-.02,1.12.84,1.08,1.59,1.08,2.62,0,5.25,0,7.87-.01.93,0,1.87-.15,1.89,1.27.01,1.41-.98,1.14-1.79,1.15-2.46.02-4.93,0-7.39.01-2.18,0-2.19.02-2.18,2.12,0,.21,0,.43,0,.64.07,4.01-.82,4.23,4.01,4.1.89-.02,1.48.16,1.51,1.16.03,1.02-.61,1.24-1.47,1.23-1.5-.02-3,0-4.5-.02-.83-.01-1.52.12-1.5,1.18.01,1.02.72,1.04,1.45,1.04,2.46,0,4.93,0,7.39,0ZM226.34,41.91s0,0,0,0c2.52,0,5.03,0,7.55,0,.74,0,1.5-.09,1.53-1.01.04-.98-.68-1.22-1.53-1.22-1.55,0-3.11.03-4.66.02-.74,0-1.58.11-1.63-1.02-.04-.99-.12-1.9,1.34-2,.75-.05,1.5-.53,2.2-.91,3.34-1.84,3.79-6.04.83-8.43-2.74-2.21-5.88-2.3-9.09-1.18-2.3.8-3.84,2.35-3.99,4.87-.16,2.71,1.74,4.92,4.92,5.65,1.17.27,1.28.84,1.24,1.8-.05,1.14-.78,1.25-1.65,1.24-1.45-.01-2.89,0-4.34-.02-.8,0-1.61.07-1.66,1.07-.05,1.18.89,1.14,1.71,1.14,2.41,0,4.82,0,7.23,0ZM184.88,26.53v-.02c-1.18,0-2.35-.02-3.53,0-.65.01-1.35.06-1.35.99,0,.91.58,1.2,1.37,1.21,1.34.02,2.67,0,4.01.02.66.01,1.6-.16,1.58.85-.02.91-.37,1.76-1.63,1.74-1.55-.02-3.1.04-4.65.16-.67.05-1.71-.1-1.62,1.03.07.95.91,1.29,1.75,1.27,1.12-.03,2.23-.21,3.34-.33.39-.04.85-.45,1.13.1.24.46-.18.8-.42,1.13-1.3,1.76-3.02,2.98-5,3.86-.36.16-.88.12-.93.72-.05.54.4.7.69.99.59.56,1.26.57,1.92.2,4.75-2.67,7.37-6.79,8.23-12.1.19-1.17-.23-1.86-1.54-1.83-1.12.03-2.25,0-3.37,0ZM203.96,26.53v-.02c-1.18,0-2.36-.01-3.53,0-.77.01-1.42.28-1.37,1.19.05.82.69,1.01,1.38,1.02,1.34.01,2.68-.02,4.01.01.65.01,1.6-.21,1.54.86-.05.92-.38,1.76-1.65,1.73-1.44-.04-2.89.09-4.33.12-.77.02-1.42.12-1.37,1.12.05,1,.69,1.28,1.53,1.22.96-.07,1.91-.21,2.86-.34.41-.06.87-.38,1.19.04.37.49-.06.91-.33,1.28-1.22,1.61-2.88,2.7-4.58,3.7-.75.44-1.07.8-.64,1.61.44.82,1.17.79,1.79.45,4.84-2.72,7.67-6.82,8.33-12.37.13-1.07-.36-1.62-1.46-1.61-1.12,0-2.25,0-3.37,0ZM270.07,26.53v-.02c-1.87,0-3.75-.03-5.62.02-.69.02-1.64-.19-1.67.98-.02,1.14.81,1.23,1.66,1.23,2.83,0,5.67.06,8.5-.02,1.38-.04,1.82.45,1.59,1.78-.33,1.99-.57,4-.83,6.01-.11.84-.12,1.65.98,1.86,1,.19,1.49-.39,1.75-1.24.09-.3.14-.63.16-.94.14-2.72.25-5.44.42-8.16.07-1.14-.4-1.53-1.49-1.5-1.82.05-3.64.01-5.46.01ZM286.66,35.79c2.83-.03,5.18-2.33,5.17-5.07-.01-2.75-2.68-5.11-5.72-5.07-2.57.04-5.35,2.66-5.36,5.05-.01,2.87,2.61,5.12,5.92,5.09ZM211.46,34.17s-.02,0-.03,0c0,2.78.04,5.56-.02,8.34-.02,1.05.43,1.27,1.34,1.25.86-.02,1.21-.25,1.16-1.22-.12-2.13-.06-4.27-.14-6.41-.05-1.17.38-1.71,1.58-1.59.82.08,1.39-.28,1.45-1.12.06-.95-.65-1.2-1.4-1.1-1.31.18-1.58-.58-1.59-1.6-.02-1.34.03-2.68-.02-4.01-.03-.84.51-2.03-1.19-2.01-1.59.02-1.09,1.13-1.11,1.93-.04,2.51-.01,5.03-.01,7.54ZM194.73,28.45h.02c0-.8-.05-1.61.01-2.41.08-.98-.3-1.33-1.27-1.32-1.08,0-1.02.66-1.02,1.39,0,5.47,0,10.93-.04,16.4,0,.87.2,1.28,1.15,1.26.88-.02,1.23-.3,1.2-1.23-.07-2.09.01-4.18-.07-6.27-.05-1.23.34-1.83,1.63-1.73.73.06,1.26-.19,1.31-1.05.04-.85-.44-1.22-1.18-1.15-1.53.14-1.84-.68-1.75-1.96.05-.64,0-1.29,0-1.93ZM270.15,41.6c2.52,0,5.03,0,7.55,0,.78,0,1.57,0,1.55-1.11-.02-1.03-.79-1.01-1.49-1.01-4.97-.01-9.95,0-14.92,0-.7,0-1.48-.03-1.48,1.01,0,1.08.76,1.12,1.56,1.12,2.41,0,4.82,0,7.23,0ZM290.4,43.71h0c1.66,0,3.32.02,4.98,0,.69,0,1.53.32,1.51-.98-.02-1.14-.65-1.12-1.47-1.1-2.03.04-4.07.03-6.11.02-.96,0-2.08.24-2.84-.17-1.07-.56-.31-1.85-.44-2.81-.11-.82-.4-1.29-1.3-1.27-.85.02-1.11.52-1.12,1.25-.01,1.23.01,2.46,0,3.7,0,1.01.44,1.41,1.48,1.38,1.77-.06,3.53-.02,5.3-.02ZM296.87,31.82c0-2.04-.03-4.07.01-6.11.02-.78-.27-1.07-1.02-.99-.6.06-1.36-.16-1.36.87,0,4.07,0,8.14,0,12.22,0,.89.54,1.17,1.36,1.2.95.03,1.02-.53,1.01-1.24-.01-1.98,0-3.96,0-5.95Z"/><path class="cls-1" d="M34.26,20.86c3.59.08,6.79.96,9.58,3.07,5.26,3.99,5.31,10.7.09,14.76-2.81,2.19-6.06,3.16-9.58,3.09-1.25-.02-2.27.26-3.27.99-1.29.95-2.66,1.81-4.01,2.67-.47.3-.95.94-1.54.48-.48-.38-.11-1,.01-1.5.26-1.04.48-2.09.86-3.09.37-.97.14-1.48-.75-2.04-2.65-1.69-4.46-4.03-4.72-7.26-.28-3.46,1.34-6.09,4-8.13,2.78-2.13,6-2.96,9.33-3.03Z"/><path class="cls-1" d="M251.19,41.91c-2.46,0-4.93,0-7.39,0-.73,0-1.44-.02-1.45-1.04-.01-1.06.67-1.19,1.5-1.18,1.5.02,3,0,4.5.02.86.01,1.5-.21,1.47-1.23-.03-1-.62-1.19-1.51-1.16-4.83.13-3.94-.09-4.01-4.1,0-.21,0-.43,0-.64,0-2.1,0-2.11,2.18-2.12,2.46,0,4.93,0,7.39-.01.81,0,1.8.27,1.79-1.15-.01-1.42-.96-1.28-1.89-1.27-2.62.01-5.25.02-7.87.01-.75,0-1.61.04-1.59-1.08.02-1.09.84-1.08,1.61-1.08,3.48,0,6.96.03,10.45,0,1.15,0,1.69.45,1.67,1.61-.03,1.18-.03,2.36,0,3.54.02,1.17-.54,1.6-1.69,1.58-2.62-.04-5.25-.01-7.87-.02-.86,0-1.7.04-1.67,1.2.03,1.1.8,1.21,1.69,1.2,2.79-.03,5.57-.02,8.36-.04.85,0,1.74.04,1.78,1.13.05,1.22-.93,1.26-1.81,1.28-.96.02-1.93-.01-2.89-.02-.87,0-1.52.38-1.51,1.28,0,.87.72,1.1,1.49,1.1,1.55,0,3.11.01,4.66-.02.88-.02,1.48.21,1.48,1.22,0,1.04-.74,1.01-1.46,1.01-2.46,0-4.93,0-7.39,0Z"/><path class="cls-1" d="M226.34,41.91c-2.41,0-4.82,0-7.23,0-.82,0-1.76.04-1.71-1.14.04-1,.86-1.08,1.66-1.07,1.45.01,2.89,0,4.34.02.87,0,1.6-.1,1.65-1.24.04-.96-.07-1.53-1.24-1.8-3.18-.72-5.08-2.93-4.92-5.65.15-2.52,1.69-4.07,3.99-4.87,3.22-1.12,6.35-1.03,9.09,1.18,2.96,2.39,2.51,6.58-.83,8.43-.69.38-1.44.86-2.2.91-1.46.11-1.38,1.01-1.34,2,.05,1.14.89,1.02,1.63,1.02,1.55,0,3.11,0,4.66-.02.84,0,1.56.24,1.53,1.22-.04.93-.8,1.01-1.53,1.01-2.52,0-5.03,0-7.55,0,0,0,0,0,0,0ZM226.38,34.78c.91,0,1.71.01,2.48-.28,1.39-.52,2.44-1.42,2.67-2.92.23-1.52-.68-2.51-1.93-3.2-1.96-1.09-4.04-1.01-6.02-.24-1.32.51-2.35,1.57-2.32,3.15.03,1.41.89,2.39,2.1,2.99.97.48,2.05.57,3.02.5Z"/><path class="cls-1" d="M184.88,26.53c1.12,0,2.25.02,3.37,0,1.31-.03,1.73.66,1.54,1.83-.87,5.31-3.49,9.43-8.23,12.1-.66.37-1.33.36-1.92-.2-.3-.28-.74-.44-.69-.99.05-.6.56-.56.93-.72,1.98-.88,3.7-2.1,5-3.86.24-.33.66-.67.42-1.13-.28-.55-.75-.14-1.13-.1-1.11.11-2.23.3-3.34.33-.84.02-1.68-.32-1.75-1.27-.08-1.12.95-.98,1.62-1.03,1.54-.12,3.1-.18,4.65-.16,1.26.02,1.61-.83,1.63-1.74.02-1-.92-.84-1.58-.85-1.34-.02-2.67,0-4.01-.02-.78-.01-1.37-.3-1.37-1.21,0-.93.69-.97,1.35-.99,1.18-.03,2.35,0,3.53,0v.02Z"/><path class="cls-1" d="M203.96,26.53c1.12,0,2.25,0,3.37,0,1.09,0,1.58.54,1.46,1.61-.66,5.54-3.48,9.65-8.33,12.37-.62.35-1.35.38-1.79-.45-.43-.81-.11-1.17.64-1.61,1.7-.99,3.36-2.09,4.58-3.7.28-.37.71-.78.33-1.28-.32-.42-.78-.1-1.19-.04-.95.14-1.9.28-2.86.34-.84.06-1.48-.22-1.53-1.22-.05-1,.61-1.1,1.37-1.12,1.44-.03,2.89-.15,4.33-.12,1.27.03,1.6-.81,1.65-1.73.06-1.07-.89-.84-1.54-.86-1.34-.03-2.68,0-4.01-.01-.69,0-1.33-.2-1.38-1.02-.05-.92.6-1.18,1.37-1.19,1.18-.02,2.36,0,3.53,0v.02Z"/><path class="cls-1" d="M270.07,26.53c1.82,0,3.64.03,5.46-.01,1.09-.03,1.57.36,1.49,1.5-.17,2.72-.28,5.44-.42,8.16-.02.32-.06.64-.16.94-.26.85-.75,1.43-1.75,1.24-1.09-.21-1.09-1.02-.98-1.86.27-2,.5-4.01.83-6.01.22-1.34-.21-1.82-1.59-1.78-2.83.08-5.67.03-8.5.02-.85,0-1.69-.09-1.66-1.23.02-1.17.98-.96,1.67-.98,1.87-.05,3.74-.02,5.62-.02v.02Z"/><path class="cls-1" d="M286.66,35.79c-3.31.03-5.93-2.22-5.92-5.09,0-2.39,2.79-5.01,5.36-5.05,3.04-.04,5.71,2.32,5.72,5.07.01,2.74-2.33,5.04-5.17,5.07ZM286.37,33.69c1.65,0,3.01-1.28,3.06-2.87.05-1.55-1.44-3.05-3.06-3.07-1.64-.02-3.14,1.38-3.19,2.99-.05,1.52,1.5,2.96,3.19,2.95Z"/><path class="cls-1" d="M211.46,34.17c0-2.51-.03-5.03.01-7.54.01-.79-.49-1.91,1.11-1.93,1.7-.02,1.16,1.16,1.19,2.01.05,1.34,0,2.67.02,4.01.02,1.02.28,1.78,1.59,1.6.75-.1,1.46.15,1.4,1.1-.05.84-.63,1.21-1.45,1.12-1.2-.12-1.62.42-1.58,1.59.08,2.14.02,4.28.14,6.41.06.97-.29,1.2-1.16,1.22-.91.02-1.36-.19-1.34-1.25.06-2.78.02-5.56.02-8.34.01,0,.02,0,.03,0Z"/><path class="cls-1" d="M194.73,28.45c0,.64.04,1.29,0,1.93-.1,1.28.22,2.1,1.75,1.96.74-.07,1.22.31,1.18,1.15-.04.85-.58,1.1-1.31,1.05-1.29-.1-1.68.51-1.63,1.73.08,2.09,0,4.18.07,6.27.03.93-.31,1.21-1.2,1.23-.95.02-1.16-.4-1.15-1.26.04-5.47.03-10.93.04-16.4,0-.73-.06-1.39,1.02-1.39.97,0,1.35.35,1.27,1.32-.07.8-.01,1.61-.01,2.41h-.02Z"/><path class="cls-1" d="M270.15,41.6c-2.41,0-4.82,0-7.23,0-.8,0-1.56-.03-1.56-1.12,0-1.04.78-1.01,1.48-1.01,4.97-.01,9.95-.01,14.92,0,.7,0,1.47-.02,1.49,1.01.02,1.11-.77,1.11-1.55,1.11-2.52,0-5.03,0-7.55,0Z"/><path class="cls-1" d="M290.4,43.71c-1.77,0-3.54-.05-5.3.02-1.03.04-1.49-.36-1.48-1.38.01-1.23-.01-2.46,0-3.7,0-.73.27-1.23,1.12-1.25.9-.02,1.19.45,1.3,1.27.13.96-.64,2.25.44,2.81.77.4,1.88.16,2.84.17,2.04.01,4.07.02,6.11-.02.82-.02,1.44-.04,1.47,1.1.03,1.3-.82.97-1.51.98-1.66.02-3.32,0-4.98,0h0Z"/><path class="cls-1" d="M296.87,31.82c0,1.98,0,3.97,0,5.95,0,.71-.07,1.27-1.01,1.24-.83-.03-1.36-.31-1.36-1.2,0-4.07.01-8.14,0-12.22,0-1.04.75-.81,1.36-.87.75-.08,1.04.21,1.02.99-.04,2.04-.01,4.07-.01,6.11Z"/><path class="cls-2" d="M226.38,34.78c-.97.08-2.05-.01-3.02-.5-1.21-.6-2.07-1.58-2.1-2.99-.03-1.58.99-2.64,2.32-3.15,1.99-.77,4.06-.85,6.02.24,1.25.69,2.16,1.68,1.93,3.2-.22,1.51-1.28,2.4-2.67,2.92-.77.29-1.57.28-2.48.28Z"/><path class="cls-2" d="M286.37,33.69c-1.69,0-3.24-1.43-3.19-2.95.05-1.61,1.54-3.01,3.19-2.99,1.62.02,3.11,1.52,3.06,3.07-.05,1.59-1.4,2.86-3.06,2.87Z"/></svg>