<?xml version="1.0" encoding="UTF-8"?><svg id="Layer_2" xmlns="http://www.w3.org/2000/svg" width="448" height="67.23" viewBox="0 0 448 67.23"><defs><style>.cls-1{fill:#fff;}.cls-2{fill:#03c75a;}</style></defs><path class="cls-2" d="M8.43,0h431.14c4.66,0,8.43,2.4,8.43,5.36v56.51c0,2.96-3.77,5.36-8.43,5.36H8.43c-4.66,0-8.43-2.4-8.43-5.36V5.36C0,2.4,3.77,0,8.43,0Z"/><polygon class="cls-1" points="38.14 36.05 28.93 24.39 21.3 24.39 21.3 46.18 29.3 46.18 29.3 34.51 38.5 46.18 46.13 46.18 46.13 24.39 38.14 24.39 38.14 36.05"/><path class="cls-1" d="M178.76,39.38v-12.06h2.04v10.48h.76c1.27,0,2.43-.08,3.49-.24,1.06-.16,1.93-.3,2.6-.44v1.51c-.37.1-.8.19-1.3.28-.49.09-1.03.17-1.59.24s-1.14.13-1.73.17c-.59.04-1.16.06-1.71.06h-2.57ZM189.07,26.13h1.97v18.05h-1.97v-10.75h-4.59v-1.54h4.59v-5.76h0ZM195.77,44.65h-2v-18.73h2v18.73Z"/><path class="cls-1" d="M209.3,33.68c0,1.1-.14,2.07-.42,2.91s-.66,1.55-1.15,2.11c-.49.56-1.06.99-1.73,1.27-.67.29-1.38.43-2.13.43s-1.47-.14-2.12-.43c-.66-.29-1.24-.71-1.73-1.27s-.89-1.26-1.17-2.11-.43-1.81-.43-2.91.14-2.06.43-2.9c.29-.84.68-1.54,1.17-2.09s1.08-.99,1.73-1.27,1.36-.43,2.12-.43,1.47.14,2.13.43,1.24.71,1.73,1.27c.49.56.87,1.26,1.15,2.09s.42,1.8.42,2.9ZM207.26,33.68c0-.76-.08-1.46-.23-2.09-.16-.63-.38-1.16-.66-1.62-.28-.45-.64-.8-1.06-1.04-.43-.24-.91-.37-1.45-.37s-1.03.12-1.45.37c-.43.24-.78.59-1.06,1.04-.29.45-.5.99-.66,1.62s-.23,1.32-.23,2.09.08,1.46.23,2.09c.16.63.38,1.17.66,1.62.28.45.64.8,1.06,1.05.43.25.91.38,1.45.38s1.03-.13,1.45-.38c.43-.25.78-.6,1.06-1.05.29-.45.5-.99.66-1.62s.23-1.32.23-2.09ZM213.29,25.92h2v18.73h-2v-18.73Z"/><path class="cls-1" d="M228.19,32.5h4.96v-6.58h2v18.73h-2v-10.6h-4.96v5.5h-9.45l.02-12.2h2.04v4.63h5.42v-4.63h1.97v5.17h0ZM226.25,33.46h-5.47v4.57h5.47v-4.57Z"/><path class="cls-1" d="M246.07,37.82v-5.66h11.24v-2.71h-11.26v-1.54h13.26v5.7h-11.24v2.71h11.93v1.5h-6.28v3.34h8.81v1.5h-19.7v-1.5h8.81v-3.34h-5.56Z"/><path class="cls-1" d="M277.24,29.77h-11.54v-1.58h13.58c-.03,1.01-.09,2.07-.17,3.18-.08,1.1-.19,2.21-.32,3.32-.13,1.11-.28,2.19-.45,3.25-.17,1.05-.34,2.03-.5,2.94h4.53v1.5h-19.67v-1.5h13.12c.39-1.68.71-3.48.98-5.4.26-1.92.42-3.82.47-5.69h0Z"/><path class="cls-1" d="M283.29,31.68c0-.68.14-1.32.42-1.91s.67-1.09,1.16-1.52c.49-.42,1.07-.75,1.73-.99s1.39-.36,2.17-.36,1.52.12,2.19.36,1.26.57,1.76.99c.49.43.88.93,1.16,1.52s.42,1.22.42,1.91-.14,1.29-.42,1.87-.67,1.07-1.16,1.49c-.49.42-1.08.75-1.76.99-.68.24-1.41.36-2.19.36s-1.51-.12-2.17-.36-1.24-.57-1.73-.99c-.49-.42-.88-.91-1.16-1.49-.28-.58-.42-1.2-.42-1.87ZM285.42,31.67c0,.45.08.87.24,1.26.16.39.39.72.7.99.3.27.66.49,1.08.64s.88.23,1.39.23.98-.08,1.39-.23.78-.37,1.08-.64.54-.6.7-.99.25-.81.25-1.26c0-.48-.08-.91-.25-1.31s-.4-.74-.7-1.02-.66-.51-1.08-.67-.88-.23-1.39-.23-.98.08-1.39.23-.78.38-1.08.67c-.3.29-.53.63-.7,1.02-.16.39-.24.83-.24,1.31ZM300.62,44.46h-13.69v-5.8h2.04v4.27h11.66v1.54h0ZM300.13,39.64h-1.97v-13.54h1.97v13.54Z"/></svg>